<svg width="222" height="232" viewBox="0 0 222 232" fill="none" xmlns="http://www.w3.org/2000/svg">
<g opacity="0.8" clip-path="url(#clip0_2234_9590)" filter="url(#filter0_d_2234_9590)">
<path d="M37.0829 163.335C38.2502 164.232 38.4507 165.783 37.5507 166.954C36.6506 168.126 35.1002 168.331 33.9329 167.434C32.7656 166.537 32.5651 164.986 33.4652 163.815C34.3652 162.644 36.0129 162.513 37.0829 163.335Z" fill="#FFCF2D"/>
<path d="M50.5082 145.864C51.6755 146.761 51.876 148.312 50.9759 149.484C50.0759 150.655 48.5255 150.86 47.3582 149.963C46.1909 149.066 45.9904 147.515 46.8905 146.344C47.7155 145.27 49.4382 145.042 50.5082 145.864Z" fill="#FFCF2D"/>
<path d="M63.8583 128.492C65.0256 129.389 65.2261 130.94 64.326 132.112C63.426 133.283 61.8756 133.488 60.7083 132.591C59.541 131.694 59.3405 130.143 60.2406 128.972C61.1406 127.801 62.7883 127.67 63.8583 128.492Z" fill="#FFCF2D"/>
<path d="M77.2836 111.022C78.4509 111.92 78.6514 113.471 77.7513 114.642C76.8513 115.813 75.3008 116.019 74.1336 115.122C72.9663 114.225 72.7658 112.673 73.6659 111.502C74.5659 110.331 76.2136 110.2 77.2836 111.022Z" fill="#FFCF2D"/>
<path d="M90.7089 93.5528C91.8762 94.4498 92.0766 96.001 91.1766 97.1721C90.2766 98.3433 88.7261 98.5489 87.5589 97.6518C86.3916 96.7548 86.1911 95.2037 87.0911 94.0325C87.9162 92.9589 89.6389 92.7305 90.7089 93.5528Z" fill="#FFCF2D"/>
<path d="M104.134 76.0831C105.301 76.9801 105.502 78.5312 104.602 79.7024C103.702 80.8736 102.151 81.0792 100.984 80.1821C99.8169 79.2851 99.6164 77.7339 100.516 76.5628C101.416 75.3916 103.064 75.2608 104.134 76.0831Z" fill="#FFCF2D"/>
<path d="M117.484 58.711C118.652 59.608 118.852 61.1592 117.952 62.3303C117.052 63.5015 115.502 63.7071 114.334 62.81C113.167 61.913 112.967 60.3619 113.867 59.1907C114.767 58.0195 116.414 57.8887 117.484 58.711Z" fill="#FFCF2D"/>
<path d="M130.91 41.2413C132.077 42.1383 132.277 43.6894 131.377 44.8606C130.477 46.0318 128.927 46.2374 127.76 45.3403C126.592 44.4433 126.392 42.8921 127.292 41.721C128.192 40.5498 129.84 40.419 130.91 41.2413Z" fill="#FFCF2D"/>
<path d="M144.335 23.7715C145.502 24.6686 145.703 26.2197 144.803 27.3909C143.903 28.562 142.352 28.7676 141.185 27.8706C140.018 26.9736 139.817 25.4224 140.717 24.2513C141.542 23.1777 143.265 22.9493 144.335 23.7715Z" fill="#FFCF2D"/>
<path d="M51.5766 174.473C52.7439 175.37 52.9443 176.921 52.0443 178.092C51.1443 179.263 49.5938 179.469 48.4265 178.572C47.2593 177.675 47.0588 176.124 47.9588 174.952C48.8588 173.781 50.4093 173.576 51.5766 174.473Z" fill="#FFCF2D"/>
<path d="M65.0019 157.003C66.1692 157.9 66.3696 159.451 65.4696 160.622C64.5696 161.793 63.0191 161.999 61.8518 161.102C60.6845 160.205 60.4841 158.654 61.3841 157.483C62.2091 156.409 63.8346 156.106 65.0019 157.003Z" fill="#FFCF2D"/>
<path d="M78.352 139.631C79.5193 140.528 79.7197 142.079 78.8197 143.25C77.9197 144.421 76.3692 144.627 75.2019 143.73C74.0346 142.833 73.8342 141.282 74.7342 140.111C75.6342 138.939 77.1847 138.734 78.352 139.631Z" fill="#FFCF2D"/>
<path d="M91.7773 122.161C92.9446 123.058 93.145 124.609 92.245 125.781C91.345 126.952 89.7945 127.157 88.6272 126.26C87.4599 125.363 87.2595 123.812 88.1595 122.641C89.0595 121.47 90.61 121.264 91.7773 122.161Z" fill="#FFCF2D"/>
<path d="M105.203 104.69C106.37 105.588 106.57 107.139 105.67 108.31C104.77 109.481 103.22 109.687 102.053 108.79C100.885 107.893 100.685 106.341 101.585 105.17C102.41 104.097 104.035 103.793 105.203 104.69Z" fill="#FFCF2D"/>
<path d="M118.628 87.2208C119.795 88.1178 119.996 89.6689 119.096 90.8401C118.196 92.0113 116.645 92.2169 115.478 91.3198C114.311 90.4228 114.11 88.8716 115.01 87.7005C115.91 86.5293 117.461 86.3237 118.628 87.2208Z" fill="#FFCF2D"/>
<path d="M131.978 69.8487C133.145 70.7457 133.346 72.2969 132.446 73.468C131.546 74.6392 129.995 74.8448 128.828 73.9477C127.661 73.0507 127.46 71.4996 128.36 70.3284C129.26 69.1572 130.811 68.9517 131.978 69.8487Z" fill="#FFCF2D"/>
<path d="M145.403 52.3789C146.571 53.276 146.771 54.8271 145.871 55.9983C144.971 57.1695 143.42 57.3751 142.253 56.478C141.086 55.581 140.885 54.0298 141.785 52.8587C142.685 51.6875 144.236 51.4819 145.403 52.3789Z" fill="#FFCF2D"/>
<path d="M158.829 34.9092C159.996 35.8063 160.196 37.3574 159.296 38.5286C158.396 39.6997 156.846 39.9053 155.678 39.0083C154.511 38.1113 154.311 36.5601 155.211 35.3889C156.036 34.3154 157.661 34.0122 158.829 34.9092Z" fill="#FFCF2D"/>
<path d="M8.1928 141.133C9.36008 142.03 9.56053 143.581 8.66052 144.752C7.7605 145.923 6.21003 146.129 5.04275 145.232C3.87546 144.335 3.67501 142.784 4.57503 141.613C5.47504 140.441 7.02552 140.236 8.1928 141.133Z" fill="#FFCF2D"/>
<path d="M21.6181 123.663C22.7854 124.56 22.9858 126.111 22.0858 127.282C21.1858 128.454 19.6353 128.659 18.468 127.762C17.3008 126.865 17.1003 125.314 18.0003 124.143C18.8253 123.069 20.4508 122.766 21.6181 123.663Z" fill="#FFCF2D"/>
<path d="M34.9682 106.291C36.1355 107.188 36.3359 108.739 35.4359 109.91C34.5359 111.082 32.9854 111.287 31.8181 110.39C30.6509 109.493 30.5254 107.844 31.3504 106.771C32.2504 105.6 33.8009 105.394 34.9682 106.291Z" fill="#FFCF2D"/>
<path d="M48.3935 88.8213C49.5608 89.7184 49.7612 91.2695 48.8612 92.4407C47.9612 93.6118 46.4107 93.8174 45.2434 92.9204C44.0761 92.0234 43.9507 90.3746 44.7757 89.3011C45.6007 88.2275 47.2262 87.9243 48.3935 88.8213Z" fill="#FFCF2D"/>
<path d="M61.8188 71.3516C62.9861 72.2486 63.1865 73.7998 62.2865 74.971C61.3865 76.1421 59.836 76.3477 58.6687 75.4507C57.5014 74.5536 57.301 73.0025 58.201 71.8313C59.026 70.7578 60.6515 70.4546 61.8188 71.3516Z" fill="#FFCF2D"/>
<path d="M75.2441 53.8809C76.4114 54.7779 76.6118 56.3291 75.7118 57.5002C74.8118 58.6714 73.2613 58.877 72.094 57.98C70.9267 57.0829 70.7263 55.5318 71.6263 54.3606C72.5263 53.1895 74.0768 52.9839 75.2441 53.8809Z" fill="#FFCF2D"/>
<path d="M88.5942 36.5088C89.7614 37.4059 89.9619 38.957 89.0619 40.1282C88.1619 41.2993 86.6114 41.5049 85.4441 40.6079C84.2768 39.7109 84.0764 38.1597 84.9764 36.9886C85.8764 35.8174 87.4269 35.6118 88.5942 36.5088Z" fill="#FFCF2D"/>
<path d="M102.019 19.0391C103.187 19.9361 103.387 21.4873 102.487 22.6585C101.587 23.8296 100.037 24.0352 98.8694 23.1382C97.7021 22.2411 97.5017 20.69 98.4017 19.5188C99.3017 18.3477 100.852 18.1421 102.019 19.0391Z" fill="#FFCF2D"/>
<path d="M115.445 1.5694C116.612 2.46644 116.812 4.01757 115.912 5.18873C115.012 6.35988 113.462 6.56548 112.295 5.66845C111.127 4.77141 110.927 3.22026 111.827 2.0491C112.652 0.975542 114.277 0.672364 115.445 1.5694Z" fill="#FFCF2D"/>
<path d="M22.6865 152.272C23.8537 153.169 24.0542 154.72 23.1542 155.891C22.2542 157.062 20.6064 157.193 19.5364 156.371C18.3691 155.474 18.1687 153.922 19.0687 152.751C19.9687 151.58 21.5192 151.374 22.6865 152.272Z" fill="#FFCF2D"/>
<path d="M36.1117 134.801C37.279 135.698 37.4795 137.249 36.5795 138.42C35.6794 139.591 34.129 139.797 32.9617 138.9C31.7944 138.003 31.594 136.452 32.494 135.281C33.319 134.207 34.9445 133.904 36.1117 134.801Z" fill="#FFCF2D"/>
<path d="M49.4618 117.429C50.6291 118.326 50.8296 119.877 49.9296 121.048C49.0295 122.219 47.4791 122.425 46.3118 121.528C45.1445 120.631 44.9441 119.08 45.8441 117.908C46.7441 116.737 48.2946 116.532 49.4618 117.429Z" fill="#FFCF2D"/>
<path d="M62.8871 99.959C64.0544 100.856 64.2549 102.407 63.3549 103.578C62.4548 104.75 60.9044 104.955 59.7371 104.058C58.5698 103.161 58.3693 101.61 59.2694 100.439C60.1694 99.2676 61.7199 99.062 62.8871 99.959Z" fill="#FFCF2D"/>
<path d="M76.3124 82.4893C77.4797 83.3863 77.6802 84.9375 76.7801 86.1086C75.8801 87.2798 74.3297 87.4854 73.1624 86.5884C71.9951 85.6913 71.7946 84.1402 72.6947 82.969C73.5197 81.8955 75.1451 81.5923 76.3124 82.4893Z" fill="#FFCF2D"/>
<path d="M89.7377 65.0196C90.905 65.9166 91.1055 67.4678 90.2054 68.6389C89.3054 69.8101 87.7549 70.0157 86.5877 69.1186C85.4204 68.2216 85.2199 66.6705 86.1199 65.4993C87.02 64.3281 88.5704 64.1225 89.7377 65.0196Z" fill="#FFCF2D"/>
<path d="M103.088 47.6475C104.255 48.5445 104.456 50.0957 103.556 51.2669C102.656 52.438 101.105 52.6436 99.9378 51.7466C98.7705 50.8495 98.57 49.2984 99.47 48.1272C100.37 46.9561 101.921 46.7505 103.088 47.6475Z" fill="#FFCF2D"/>
<path d="M116.513 30.1778C117.68 31.0748 117.881 32.626 116.981 33.7971C116.081 34.9683 114.53 35.1739 113.363 34.2768C112.196 33.3798 111.995 31.8287 112.895 30.6575C113.795 29.4863 115.346 29.2807 116.513 30.1778Z" fill="#FFCF2D"/>
<path d="M129.938 12.7081C131.106 13.6051 131.306 15.1562 130.406 16.3274C129.506 17.4986 127.956 17.7042 126.788 16.8071C125.621 15.9101 125.421 14.3589 126.321 13.1878C127.146 12.1142 128.771 11.811 129.938 12.7081Z" fill="#FFCF2D"/>
<path d="M65.9736 185.536C67.1408 186.433 67.3413 187.984 66.4413 189.156C65.5413 190.327 63.9908 190.532 62.8235 189.635C61.6562 188.738 61.4558 187.187 62.3558 186.016C63.2558 184.845 64.9036 184.714 65.9736 185.536Z" fill="#FFCF2D"/>
<path d="M79.3989 168.066C80.5661 168.963 80.7666 170.515 79.8666 171.686C78.9665 172.857 77.4161 173.063 76.2488 172.166C75.0815 171.268 74.8811 169.717 75.7811 168.546C76.6061 167.473 78.3288 167.244 79.3989 168.066Z" fill="#FFCF2D"/>
<path d="M92.749 150.694C93.9162 151.591 94.1167 153.143 93.2167 154.314C92.3167 155.485 90.7662 155.69 89.5989 154.793C88.4316 153.896 88.2312 152.345 89.1312 151.174C90.0312 150.003 91.6789 149.872 92.749 150.694Z" fill="#FFCF2D"/>
<path d="M106.174 133.225C107.342 134.122 107.542 135.673 106.642 136.844C105.742 138.015 104.191 138.221 103.024 137.324C101.857 136.427 101.656 134.876 102.556 133.704C103.456 132.533 105.104 132.402 106.174 133.225Z" fill="#FFCF2D"/>
<path d="M119.6 115.755C120.767 116.652 120.967 118.203 120.067 119.374C119.167 120.545 117.617 120.751 116.449 119.854C115.282 118.957 115.082 117.406 115.982 116.235C116.807 115.161 118.53 114.933 119.6 115.755Z" fill="#FFCF2D"/>
<path d="M133.025 98.2842C134.192 99.1813 134.393 100.732 133.493 101.904C132.593 103.075 131.042 103.28 129.875 102.383C128.707 101.486 128.507 99.9351 129.407 98.7639C130.307 97.5928 131.955 97.4619 133.025 98.2842Z" fill="#FFCF2D"/>
<path d="M146.375 80.9121C147.542 81.8092 147.743 83.3603 146.843 84.5315C145.943 85.7027 144.392 85.9083 143.225 85.0112C142.058 84.1142 141.857 82.563 142.757 81.3919C143.657 80.2207 145.305 80.0899 146.375 80.9121Z" fill="#FFCF2D"/>
<path d="M159.8 63.4424C160.968 64.3395 161.168 65.8906 160.268 67.0618C159.368 68.2329 157.817 68.4385 156.65 67.5415C155.483 66.6445 155.282 65.0933 156.182 63.9221C157.082 62.751 158.73 62.6201 159.8 63.4424Z" fill="#FFCF2D"/>
<path d="M173.226 45.9727C174.393 46.8697 174.593 48.4209 173.693 49.592C172.793 50.7632 171.243 50.9688 170.075 50.0718C168.908 49.1747 168.708 47.6236 169.608 46.4524C170.433 45.3789 172.155 45.1504 173.226 45.9727Z" fill="#FFCF2D"/>
<path d="M80.4672 196.674C81.6345 197.571 81.8349 199.122 80.9349 200.293C80.0349 201.464 78.4844 201.67 77.3172 200.773C76.1499 199.876 75.9494 198.325 76.8494 197.154C77.7495 195.982 79.2999 195.777 80.4672 196.674Z" fill="#FFCF2D"/>
<path d="M93.8925 179.204C95.0598 180.101 95.2602 181.652 94.3602 182.823C93.4602 183.995 91.9097 184.2 90.7424 183.303C89.5752 182.406 89.3747 180.855 90.2747 179.684C91.0998 178.61 92.7252 178.307 93.8925 179.204Z" fill="#FFCF2D"/>
<path d="M107.243 161.832C108.41 162.729 108.61 164.28 107.71 165.451C106.81 166.623 105.26 166.828 104.093 165.931C102.925 165.034 102.725 163.483 103.625 162.312C104.525 161.141 106.075 160.935 107.243 161.832Z" fill="#FFCF2D"/>
<path d="M121.136 147.982C122.005 146.85 121.796 145.229 120.668 144.362C119.54 143.495 117.92 143.71 117.05 144.842C116.18 145.974 116.39 147.594 117.518 148.461C118.646 149.328 120.266 149.114 121.136 147.982Z" fill="#FFCF2D"/>
<path d="M134.093 126.893C135.26 127.79 135.461 129.341 134.561 130.512C133.661 131.683 132.11 131.889 130.943 130.992C129.776 130.095 129.575 128.544 130.475 127.372C131.3 126.299 132.926 125.996 134.093 126.893Z" fill="#FFCF2D"/>
<path d="M147.518 109.423C148.686 110.32 148.886 111.871 147.986 113.042C147.086 114.213 145.536 114.419 144.368 113.522C143.201 112.625 143.001 111.074 143.901 109.903C144.801 108.731 146.351 108.526 147.518 109.423Z" fill="#FFCF2D"/>
<path d="M160.869 92.0508C162.036 92.9479 162.236 94.499 161.336 95.6702C160.436 96.8413 158.886 97.0469 157.719 96.1499C156.551 95.2529 156.351 93.7017 157.251 92.5305C158.151 91.3594 159.701 91.1538 160.869 92.0508Z" fill="#FFCF2D"/>
<path d="M174.762 78.2004C175.631 77.0685 175.422 75.4481 174.294 74.5811C173.166 73.7141 171.546 73.9289 170.676 75.0608C169.806 76.1927 170.016 77.8132 171.144 78.6802C172.272 79.5471 173.892 79.3324 174.762 78.2004Z" fill="#FFCF2D"/>
<path d="M187.719 57.1114C188.886 58.0084 189.087 59.5595 188.187 60.7307C187.287 61.9019 185.736 62.1075 184.569 61.2104C183.402 60.3134 183.201 58.7622 184.101 57.5911C184.926 56.5175 186.552 56.2143 187.719 57.1114Z" fill="#FFCF2D"/>
<path d="M94.9609 207.813C96.1282 208.71 96.3286 210.261 95.4286 211.432C94.5286 212.603 92.9781 212.809 91.8108 211.912C90.6435 211.015 90.4431 209.463 91.3431 208.292C92.2431 207.121 93.7936 206.916 94.9609 207.813Z" fill="#FFCF2D"/>
<path d="M108.386 190.343C109.553 191.24 109.754 192.791 108.854 193.962C107.954 195.133 106.403 195.339 105.236 194.442C104.069 193.545 103.868 191.994 104.768 190.823C105.593 189.749 107.219 189.446 108.386 190.343Z" fill="#FFCF2D"/>
<path d="M121.736 172.971C122.904 173.868 123.104 175.419 122.204 176.59C121.304 177.761 119.753 177.967 118.586 177.07C117.419 176.173 117.218 174.622 118.118 173.45C119.018 172.279 120.569 172.074 121.736 172.971Z" fill="#FFCF2D"/>
<path d="M135.162 155.501C136.329 156.398 136.529 157.949 135.629 159.12C134.729 160.292 133.179 160.497 132.012 159.6C130.844 158.703 130.644 157.152 131.544 155.981C132.444 154.81 133.994 154.604 135.162 155.501Z" fill="#FFCF2D"/>
<path d="M148.587 138.031C149.754 138.928 149.955 140.479 149.055 141.651C148.155 142.822 146.604 143.027 145.437 142.13C144.27 141.233 144.069 139.682 144.969 138.511C145.794 137.437 147.42 137.134 148.587 138.031Z" fill="#FFCF2D"/>
<path d="M162.012 120.561C163.179 121.458 163.38 123.009 162.48 124.18C161.58 125.351 160.029 125.557 158.862 124.66C157.695 123.763 157.494 122.211 158.394 121.04C159.294 119.869 160.845 119.664 162.012 120.561Z" fill="#FFCF2D"/>
<path d="M175.362 103.189C176.53 104.086 176.73 105.637 175.83 106.808C174.93 107.979 173.379 108.185 172.212 107.288C171.045 106.391 170.844 104.839 171.744 103.668C172.644 102.497 174.195 102.291 175.362 103.189Z" fill="#FFCF2D"/>
<path d="M188.788 85.7188C189.955 86.6158 190.155 88.167 189.255 89.3381C188.355 90.5093 186.805 90.7149 185.637 89.8179C184.47 88.9208 184.27 87.3697 185.17 86.1985C186.07 85.0274 187.62 84.8218 188.788 85.7188Z" fill="#FFCF2D"/>
<path d="M202.213 68.2491C203.38 69.1461 203.581 70.6973 202.681 71.8684C201.781 73.0396 200.23 73.2452 199.063 72.3481C197.895 71.4511 197.695 69.8999 198.595 68.7288C199.42 67.6552 201.046 67.352 202.213 68.2491Z" fill="#FFCF2D"/>
<path d="M109.357 218.876C110.525 219.773 110.725 221.324 109.825 222.495C108.925 223.667 107.375 223.872 106.207 222.975C105.04 222.078 104.84 220.527 105.74 219.356C106.64 218.185 108.287 218.054 109.357 218.876Z" fill="#FFCF2D"/>
<path d="M122.783 201.406C123.95 202.303 124.15 203.854 123.25 205.026C122.35 206.197 120.8 206.402 119.633 205.505C118.465 204.608 118.265 203.057 119.165 201.886C119.99 200.812 121.713 200.584 122.783 201.406Z" fill="#FFCF2D"/>
<path d="M136.133 184.034C137.3 184.931 137.5 186.482 136.6 187.654C135.7 188.825 134.15 189.03 132.983 188.133C131.815 187.236 131.615 185.685 132.515 184.514C133.415 183.343 135.063 183.212 136.133 184.034Z" fill="#FFCF2D"/>
<path d="M149.558 166.564C150.725 167.462 150.926 169.013 150.026 170.184C149.126 171.355 147.575 171.561 146.408 170.664C145.241 169.767 145.04 168.215 145.94 167.044C146.84 165.873 148.488 165.742 149.558 166.564Z" fill="#FFCF2D"/>
<path d="M162.983 149.094C164.151 149.991 164.351 151.542 163.451 152.713C162.551 153.884 161.001 154.09 159.833 153.193C158.666 152.296 158.466 150.745 159.366 149.574C160.191 148.5 161.913 148.272 162.983 149.094Z" fill="#FFCF2D"/>
<path d="M176.409 131.624C177.576 132.521 177.776 134.072 176.876 135.243C175.976 136.415 174.426 136.62 173.259 135.723C172.091 134.826 171.891 133.275 172.791 132.104C173.691 130.933 175.339 130.802 176.409 131.624Z" fill="#FFCF2D"/>
<path d="M189.759 114.252C190.926 115.149 191.126 116.7 190.226 117.871C189.326 119.042 187.776 119.248 186.609 118.351C185.441 117.454 185.241 115.903 186.141 114.732C187.041 113.561 188.689 113.43 189.759 114.252Z" fill="#FFCF2D"/>
<path d="M203.184 96.7823C204.351 97.6793 204.552 99.2305 203.652 100.402C202.752 101.573 201.201 101.778 200.034 100.881C198.867 99.9843 198.666 98.4332 199.566 97.262C200.466 96.0908 202.114 95.96 203.184 96.7823Z" fill="#FFCF2D"/>
<path d="M216.609 79.3126C217.777 80.2096 217.977 81.7607 217.077 82.9319C216.177 84.103 214.627 84.3086 213.459 83.4116C212.292 82.5146 212.092 80.9634 212.992 79.7923C213.817 78.7187 215.539 78.4903 216.609 79.3126Z" fill="#FFCF2D"/>
</g>
<defs>
<filter id="filter0_d_2234_9590" x="-1" y="0" width="223.652" height="232.545" filterUnits="userSpaceOnUse" color-interpolation-filters="sRGB">
<feFlood flood-opacity="0" result="BackgroundImageFix"/>
<feColorMatrix in="SourceAlpha" type="matrix" values="0 0 0 0 0 0 0 0 0 0 0 0 0 0 0 0 0 0 127 0" result="hardAlpha"/>
<feOffset dy="4"/>
<feGaussianBlur stdDeviation="2"/>
<feComposite in2="hardAlpha" operator="out"/>
<feColorMatrix type="matrix" values="0 0 0 0 0 0 0 0 0 0 0 0 0 0 0 0 0 0 0.25 0"/>
<feBlend mode="normal" in2="BackgroundImageFix" result="effect1_dropShadow_2234_9590"/>
<feBlend mode="normal" in="SourceGraphic" in2="effect1_dropShadow_2234_9590" result="shape"/>
</filter>
<clipPath id="clip0_2234_9590">
<rect width="181.184" height="132.739" fill="white" transform="translate(3 143.662) rotate(-52.4584)"/>
</clipPath>
</defs>
</svg>
